<svg width="301" height="300" viewBox="0 0 301 300" fill="none" xmlns="http://www.w3.org/2000/svg">
<path fill-rule="evenodd" clip-rule="evenodd" d="M279.9 223C277.9 225.867 275.833 228.667 273.7 231.4C271.567 234.067 269.333 236.633 267 239.1C264.667 241.5 262.233 243.733 259.7 245.8C257.233 247.867 254.667 249.7 252 251.3C249.333 252.9 246.6 254.267 243.8 255.4C240.933 256.533 238 257.367 235 257.9C232.067 258.367 229 258.533 225.8 258.4C222.667 258.267 219.467 257.833 216.2 257.1C212.867 256.367 209.5 255.4 206.1 254.2C202.7 253 199.233 251.733 195.7 250.4C192.167 249 188.633 247.633 185.1 246.3C181.5 244.967 177.9 243.767 174.3 242.7C170.7 241.633 167.067 240.8 163.4 240.2C159.8 239.6 156.2 239.367 152.6 239.5C149 239.567 145.4 240.133 141.8 241.2C138.267 242.2 134.733 243.667 131.2 245.6C127.733 247.467 124.233 249.667 120.7 252.2C117.233 254.733 113.767 257.467 110.3 260.4C106.9 263.267 103.467 266.233 100 269.3C96.5333 272.3 93.0667 275.267 89.6 278.2C86.1333 281.067 82.6667 283.8 79.2 286.4C75.7333 288.933 72.2333 291.167 68.7 293.1C65.1667 295.033 61.6 296.567 58 297.7C54.4667 298.833 50.9333 299.533 47.4 299.8C43.9333 300.133 40.5 300.067 37.1 299.6C33.7667 299.133 30.5667 298.333 27.5 297.2C24.4333 296.067 21.5333 294.6 18.8 292.8C16.0667 291.067 13.6 289.033 11.4 286.7C9.2 284.367 7.26667 281.767 5.6 278.9C4 276.1 2.73333 273.067 1.8 269.8C0.866667 266.533 0.3 263.1 0.1 259.5C-0.1 255.833 0 252.067 0.4 248.2C0.8 244.267 1.4 240.267 2.2 236.2C3 232.133 3.96667 228 5.1 223.8C6.16667 219.6 7.26667 215.4 8.4 211.2C9.6 207.067 10.7667 202.933 11.9 198.8C12.9667 194.733 13.9667 190.733 14.9 186.8C15.7667 182.867 16.4333 179.067 16.9 175.4C17.4333 171.733 17.7333 168.2 17.8 164.8C17.9333 161.467 17.8667 158.233 17.6 155.1C17.4 151.967 17.0667 148.9 16.6 145.9C16.2 142.967 15.7 140.1 15.1 137.3C14.5667 134.5 14 131.733 13.4 129C12.8 126.333 12.2333 123.667 11.7 121C11.1667 118.333 10.7333 115.7 10.4 113.1C10.0667 110.433 9.83333 107.767 9.7 105.1C9.63333 102.433 9.7 99.7333 9.9 97C10.1 94.3333 10.4 91.6333 10.8 88.9C11.2667 86.2333 11.8667 83.5667 12.6 80.9C13.2667 78.3 14.1 75.7 15.1 73.1C16.0333 70.5 17.1333 67.9667 18.4 65.5C19.6 62.9667 20.9333 60.5333 22.4 58.2C23.8 55.8 25.3667 53.5 27.1 51.3C28.7667 49.1 30.5333 46.9667 32.4 44.9C34.3333 42.9 36.3333 40.9667 38.4 39.1C40.5333 37.2333 42.7333 35.5 45 33.9C47.2667 32.3 49.6 30.8 52 29.4C54.4 28 56.8667 26.7333 59.4 25.6C61.8667 24.4 64.4333 23.3667 67.1 22.5C69.7 21.6333 72.3333 20.9 75 20.3C77.6667 19.7 80.3333 19.2333 83 18.9C85.6667 18.5667 88.3667 18.4 91.1 18.4C93.8333 18.3333 96.6 18.3333 99.4 18.4C102.2 18.5333 105.033 18.7 107.9 18.9C110.767 19.1 113.667 19.2667 116.6 19.4C119.6 19.5333 122.667 19.6333 125.8 19.7C128.933 19.7 132.133 19.6 135.4 19.4C138.667 19.2 142.033 18.8333 145.5 18.3C148.967 17.8333 152.533 17.1333 156.2 16.2C159.867 15.3333 163.6 14.3 167.4 13.1C171.2 11.9 175 10.6333 178.8 9.3C182.6 8.03333 186.3 6.8 189.9 5.6C193.567 4.4 197.067 3.33333 200.4 2.4C203.8 1.53333 206.967 0.866667 209.9 0.4C212.833 0 215.533 -0.1 218 0.1C220.4 0.366667 222.467 1.06667 224.2 2.2C225.933 3.26667 227.3 4.83333 228.3 6.9C229.3 9.03333 230 11.5333 230.4 14.4C230.8 17.3333 231.033 20.5667 231.1 24.1C231.167 27.6333 231.167 31.4 231.1 35.4C230.967 39.3333 230.9 43.4 230.9 47.6C230.833 51.8 230.9 56.0333 231.1 60.3C231.3 64.5 231.767 68.6667 232.5 72.8C233.167 76.8667 234.167 80.7333 235.5 84.4C236.833 88.1333 238.533 91.6333 240.6 94.9C242.667 98.1667 245 101.267 247.6 104.2C250.2 107.067 252.933 109.833 255.8 112.5C258.733 115.167 261.7 117.733 264.7 120.2C267.767 122.667 270.767 125.067 273.7 127.4C276.633 129.8 279.433 132.2 282.1 134.6C284.767 137 287.2 139.467 289.4 142C291.533 144.467 293.367 147.067 294.9 149.8C296.433 152.467 297.6 155.233 298.4 158.1C299.2 161.033 299.7 164 299.9 167C300.1 170 300.033 173.067 299.7 176.2C299.3 179.333 298.7 182.5 297.9 185.7C297.033 188.833 296 192 294.8 195.2C293.6 198.4 292.2 201.567 290.6 204.7C289.067 207.833 287.4 210.933 285.6 214C283.8 217.067 281.9 220.067 279.9 223Z" fill="url(#paint0_linear_132_2)"/>
<defs>
<linearGradient id="paint0_linear_132_2" x1="283" y1="171.5" x2="2.5891e-07" y2="208" gradientUnits="userSpaceOnUse">
<stop stop-color="#20CBE1"/>
<stop offset="0.5" stop-color="#20A4DC"/>
<stop offset="1" stop-color="#115876"/>
</linearGradient>
</defs>
</svg>
