<svg xmlns="http://www.w3.org/2000/svg" xmlns:xlink="http://www.w3.org/1999/xlink" width="500" zoomAndPan="magnify" viewBox="0 0 375 374.999991" height="500" preserveAspectRatio="xMidYMid meet" version="1.2"><defs><clipPath id="823e5425fc"><path d="M 76 139 L 300 139 L 300 269 L 76 269 Z M 76 139 "/></clipPath><clipPath id="b13dbe587e"><path d="M 112.566406 80.113281 L 314.796875 158.117188 L 262.164062 294.566406 L 59.933594 216.5625 Z M 112.566406 80.113281 "/></clipPath><clipPath id="3cdf6f0c10"><path d="M 112.566406 80.113281 L 314.796875 158.117188 L 262.164062 294.566406 L 59.933594 216.5625 Z M 112.566406 80.113281 "/></clipPath><clipPath id="c65489b200"><path d="M 297.953125 189.230469 C 302.984375 172.136719 294.390625 153.648438 278.160156 146.375 C 265.628906 140.714844 251.761719 142.8125 241.65625 150.414062 C 236.621094 154.171875 229.65625 153.875 224.761719 149.871094 C 220.996094 146.765625 216.582031 144.140625 211.777344 142.289062 C 197.6875 136.855469 182.585938 138.570312 170.4375 145.75 C 163.398438 149.929688 154.664062 149.6875 147.605469 145.585938 C 144.539062 143.757812 141.15625 142.269531 137.621094 141.183594 C 114.703125 134.089844 89.859375 145.566406 80.285156 167.53125 C 69.375 192.472656 81.566406 221.179688 106.703125 230.875 C 117.109375 234.890625 128.027344 234.960938 137.835938 231.941406 C 147.757812 228.871094 158.359375 233.328125 163.066406 242.589844 C 168.566406 253.359375 178.15625 262.113281 190.730469 266.230469 C 213.847656 273.765625 239.34375 262.265625 248.964844 239.949219 C 250.0625 237.339844 250.941406 234.828125 251.609375 232.140625 C 253.792969 223.144531 260.84375 216.300781 269.96875 214.578125 C 282.734375 212.238281 293.949219 202.953125 297.953125 189.230469 Z M 297.953125 189.230469 "/></clipPath><clipPath id="997b553004"><path d="M 143 121 L 165 121 L 165 143 L 143 143 Z M 143 121 "/></clipPath><clipPath id="82c05d9d37"><path d="M 112.566406 80.113281 L 314.796875 158.117188 L 262.164062 294.566406 L 59.933594 216.5625 Z M 112.566406 80.113281 "/></clipPath><clipPath id="88a1e5eb09"><path d="M 112.566406 80.113281 L 314.796875 158.117188 L 262.164062 294.566406 L 59.933594 216.5625 Z M 112.566406 80.113281 "/></clipPath><clipPath id="ba3bf0128c"><path d="M 163.402344 135.859375 C 163.160156 136.484375 162.859375 137.082031 162.5 137.648438 C 162.144531 138.214844 161.734375 138.742188 161.269531 139.226562 C 160.808594 139.710938 160.304688 140.148438 159.753906 140.535156 C 159.207031 140.917969 158.625 141.25 158.011719 141.519531 C 157.398438 141.792969 156.765625 142 156.113281 142.148438 C 155.457031 142.296875 154.796875 142.375 154.125 142.394531 C 153.457031 142.410156 152.789062 142.359375 152.128906 142.246094 C 151.46875 142.132812 150.828125 141.953125 150.199219 141.710938 C 149.574219 141.472656 148.980469 141.171875 148.414062 140.8125 C 147.847656 140.453125 147.320312 140.042969 146.835938 139.582031 C 146.347656 139.117188 145.914062 138.613281 145.527344 138.066406 C 145.140625 137.515625 144.8125 136.9375 144.542969 136.324219 C 144.269531 135.710938 144.058594 135.078125 143.914062 134.421875 C 143.765625 133.769531 143.683594 133.105469 143.667969 132.4375 C 143.652344 131.765625 143.699219 131.101562 143.816406 130.441406 C 143.929688 129.78125 144.109375 129.136719 144.347656 128.511719 C 144.589844 127.886719 144.890625 127.289062 145.25 126.722656 C 145.609375 126.15625 146.019531 125.632812 146.480469 125.144531 C 146.941406 124.660156 147.449219 124.222656 147.996094 123.839844 C 148.542969 123.453125 149.125 123.125 149.738281 122.851562 C 150.351562 122.582031 150.984375 122.371094 151.636719 122.222656 C 152.292969 122.078125 152.953125 121.996094 153.625 121.980469 C 154.292969 121.960938 154.960938 122.011719 155.621094 122.125 C 156.28125 122.242188 156.925781 122.417969 157.550781 122.660156 C 158.175781 122.902344 158.769531 123.203125 159.335938 123.558594 C 159.902344 123.917969 160.429688 124.328125 160.914062 124.792969 C 161.402344 125.253906 161.835938 125.757812 162.222656 126.308594 C 162.609375 126.855469 162.9375 127.433594 163.210938 128.046875 C 163.480469 128.660156 163.691406 129.292969 163.835938 129.949219 C 163.984375 130.601562 164.066406 131.265625 164.082031 131.933594 C 164.097656 132.605469 164.050781 133.269531 163.933594 133.929688 C 163.820312 134.59375 163.644531 135.234375 163.402344 135.859375 Z M 163.402344 135.859375 "/></clipPath><clipPath id="217ee9ebe5"><path d="M 209 120 L 222 120 L 222 133 L 209 133 Z M 209 120 "/></clipPath><clipPath id="94c1716cfd"><path d="M 112.566406 80.113281 L 314.796875 158.117188 L 262.164062 294.566406 L 59.933594 216.5625 Z M 112.566406 80.113281 "/></clipPath><clipPath id="f6bdae848a"><path d="M 112.566406 80.113281 L 314.796875 158.117188 L 262.164062 294.566406 L 59.933594 216.5625 Z M 112.566406 80.113281 "/></clipPath><clipPath id="dff8820b11"><path d="M 221.457031 128.640625 C 221.3125 129.015625 221.132812 129.371094 220.917969 129.707031 C 220.703125 130.046875 220.460938 130.359375 220.183594 130.648438 C 219.90625 130.9375 219.605469 131.199219 219.28125 131.429688 C 218.953125 131.660156 218.605469 131.855469 218.242188 132.019531 C 217.875 132.179688 217.496094 132.304688 217.105469 132.394531 C 216.714844 132.480469 216.320312 132.53125 215.921875 132.539062 C 215.519531 132.550781 215.125 132.519531 214.730469 132.453125 C 214.335938 132.382812 213.953125 132.277344 213.578125 132.132812 C 213.207031 131.988281 212.851562 131.808594 212.511719 131.597656 C 212.175781 131.382812 211.859375 131.136719 211.570312 130.859375 C 211.28125 130.585938 211.019531 130.285156 210.792969 129.957031 C 210.5625 129.628906 210.363281 129.285156 210.203125 128.917969 C 210.039062 128.550781 209.914062 128.175781 209.828125 127.785156 C 209.742188 127.394531 209.691406 127 209.683594 126.597656 C 209.671875 126.199219 209.699219 125.800781 209.769531 125.40625 C 209.839844 125.011719 209.945312 124.628906 210.089844 124.257812 C 210.230469 123.882812 210.410156 123.527344 210.625 123.191406 C 210.839844 122.851562 211.082031 122.539062 211.359375 122.25 C 211.636719 121.957031 211.9375 121.699219 212.265625 121.46875 C 212.589844 121.238281 212.9375 121.042969 213.304688 120.878906 C 213.667969 120.71875 214.046875 120.59375 214.4375 120.503906 C 214.828125 120.417969 215.222656 120.367188 215.621094 120.359375 C 216.023438 120.347656 216.417969 120.378906 216.8125 120.445312 C 217.207031 120.515625 217.589844 120.621094 217.964844 120.765625 C 218.335938 120.910156 218.691406 121.089844 219.03125 121.300781 C 219.367188 121.515625 219.683594 121.761719 219.972656 122.035156 C 220.261719 122.3125 220.523438 122.613281 220.753906 122.941406 C 220.984375 123.269531 221.179688 123.613281 221.339844 123.980469 C 221.503906 124.347656 221.628906 124.722656 221.714844 125.113281 C 221.804688 125.503906 221.851562 125.898438 221.863281 126.300781 C 221.871094 126.699219 221.84375 127.097656 221.773438 127.492188 C 221.707031 127.882812 221.597656 128.269531 221.457031 128.640625 Z M 221.457031 128.640625 "/></clipPath><clipPath id="8c02f60422"><path d="M 264 227 L 284 227 L 284 247 L 264 247 Z M 264 227 "/></clipPath><clipPath id="c4ee5c8ab7"><path d="M 112.566406 80.113281 L 314.796875 158.117188 L 262.164062 294.566406 L 59.933594 216.5625 Z M 112.566406 80.113281 "/></clipPath><clipPath id="150f85c615"><path d="M 112.566406 80.113281 L 314.796875 158.117188 L 262.164062 294.566406 L 59.933594 216.5625 Z M 112.566406 80.113281 "/></clipPath><clipPath id="b4dfccf776"><path d="M 282.769531 240.757812 C 282.542969 241.347656 282.261719 241.910156 281.921875 242.441406 C 281.585938 242.976562 281.199219 243.46875 280.765625 243.925781 C 280.328125 244.382812 279.851562 244.792969 279.335938 245.15625 C 278.820312 245.519531 278.273438 245.832031 277.699219 246.085938 C 277.121094 246.34375 276.523438 246.539062 275.910156 246.675781 C 275.292969 246.816406 274.671875 246.890625 274.039062 246.90625 C 273.410156 246.921875 272.78125 246.878906 272.160156 246.769531 C 271.539062 246.660156 270.933594 246.492188 270.347656 246.265625 C 269.757812 246.039062 269.195312 245.757812 268.664062 245.421875 C 268.128906 245.082031 267.636719 244.695312 267.179688 244.261719 C 266.722656 243.824219 266.3125 243.351562 265.949219 242.835938 C 265.585938 242.320312 265.273438 241.773438 265.019531 241.195312 C 264.761719 240.617188 264.566406 240.023438 264.429688 239.40625 C 264.289062 238.792969 264.210938 238.167969 264.195312 237.539062 C 264.183594 236.90625 264.226562 236.28125 264.335938 235.660156 C 264.445312 235.035156 264.609375 234.429688 264.839844 233.84375 C 265.066406 233.253906 265.347656 232.691406 265.683594 232.160156 C 266.023438 231.628906 266.410156 231.132812 266.84375 230.675781 C 267.277344 230.21875 267.753906 229.808594 268.269531 229.445312 C 268.785156 229.082031 269.332031 228.773438 269.910156 228.515625 C 270.488281 228.261719 271.082031 228.0625 271.699219 227.925781 C 272.3125 227.785156 272.9375 227.710938 273.566406 227.695312 C 274.199219 227.679688 274.824219 227.726562 275.445312 227.832031 C 276.070312 227.941406 276.671875 228.109375 277.261719 228.335938 C 277.851562 228.5625 278.410156 228.84375 278.945312 229.183594 C 279.476562 229.519531 279.972656 229.90625 280.429688 230.339844 C 280.886719 230.777344 281.296875 231.25 281.660156 231.769531 C 282.023438 232.285156 282.332031 232.828125 282.589844 233.40625 C 282.84375 233.984375 283.042969 234.578125 283.179688 235.195312 C 283.320312 235.8125 283.394531 236.433594 283.410156 237.066406 C 283.425781 237.695312 283.378906 238.320312 283.273438 238.945312 C 283.164062 239.566406 282.996094 240.171875 282.769531 240.757812 Z M 282.769531 240.757812 "/></clipPath><clipPath id="69c273eda9"><path d="M 140 117 L 166 117 L 166 143 L 140 143 Z M 140 117 "/></clipPath><clipPath id="fb893b74b8"><path d="M 137.550781 120.425781 L 162.992188 113.960938 L 169.460938 139.398438 L 144.019531 145.867188 Z M 137.550781 120.425781 "/></clipPath><clipPath id="323a8553d5"><path d="M 137.550781 120.425781 L 162.992188 113.960938 L 169.460938 139.398438 L 144.019531 145.867188 Z M 137.550781 120.425781 "/></clipPath><clipPath id="abd05ab0aa"><path d="M 140 116 L 167 116 L 167 143 L 140 143 Z M 140 116 "/></clipPath><clipPath id="29b1d3068a"><path d="M 137.550781 120.425781 L 162.992188 113.960938 L 169.460938 139.398438 L 144.019531 145.867188 Z M 137.550781 120.425781 "/></clipPath><clipPath id="36f3c72bf6"><path d="M 137.550781 120.425781 L 162.992188 113.960938 L 169.460938 139.398438 L 144.019531 145.867188 Z M 137.550781 120.425781 "/></clipPath><clipPath id="34e24863c9"><path d="M 257.226562 222 L 290.976562 222 L 290.976562 255.507812 L 257.226562 255.507812 Z M 257.226562 222 "/></clipPath><clipPath id="b0a78fe622"><path d="M 257.226562 221.757812 L 290.976562 221.757812 L 290.976562 255.507812 L 257.226562 255.507812 Z M 257.226562 221.757812 "/></clipPath></defs><g id="0d904f1e5c"><g clip-rule="nonzero" clip-path="url(#823e5425fc)"><g clip-rule="nonzero" clip-path="url(#b13dbe587e)"><g clip-rule="nonzero" clip-path="url(#3cdf6f0c10)"><g clip-rule="nonzero" clip-path="url(#c65489b200)"><path style=" stroke:none;fill-rule:nonzero;fill:#1fa7e1;fill-opacity:1;" d="M 99.628906 55.648438 L 22.476562 255.675781 L 272.730469 352.207031 L 349.886719 152.179688 Z M 99.628906 55.648438 "/></g></g></g></g><g clip-rule="nonzero" clip-path="url(#997b553004)"><g clip-rule="nonzero" clip-path="url(#82c05d9d37)"><g clip-rule="nonzero" clip-path="url(#88a1e5eb09)"><g clip-rule="nonzero" clip-path="url(#ba3bf0128c)"><path style=" stroke:none;fill-rule:nonzero;fill:#1fa7e1;fill-opacity:1;" d="M 146.300781 115.097656 L 136.785156 139.761719 L 161.449219 149.273438 L 170.964844 124.609375 Z M 146.300781 115.097656 "/></g></g></g></g><g clip-rule="nonzero" clip-path="url(#217ee9ebe5)"><g clip-rule="nonzero" clip-path="url(#94c1716cfd)"><g clip-rule="nonzero" clip-path="url(#f6bdae848a)"><g clip-rule="nonzero" clip-path="url(#dff8820b11)"><path style=" stroke:none;fill-rule:nonzero;fill:#1fa7e1;fill-opacity:1;" d="M 211.25 116.253906 L 205.574219 130.96875 L 220.292969 136.644531 L 225.96875 121.929688 Z M 211.25 116.253906 "/></g></g></g></g><g clip-rule="nonzero" clip-path="url(#8c02f60422)"><g clip-rule="nonzero" clip-path="url(#c4ee5c8ab7)"><g clip-rule="nonzero" clip-path="url(#150f85c615)"><g clip-rule="nonzero" clip-path="url(#b4dfccf776)"><path style=" stroke:none;fill-rule:nonzero;fill:#1fa7e1;fill-opacity:1;" d="M 266.675781 221.21875 L 257.71875 244.429688 L 280.933594 253.386719 L 289.886719 230.171875 Z M 266.675781 221.21875 "/></g></g></g></g><g clip-rule="nonzero" clip-path="url(#69c273eda9)"><g clip-rule="nonzero" clip-path="url(#fb893b74b8)"><g clip-rule="nonzero" clip-path="url(#323a8553d5)"><path style=" stroke:none;fill-rule:nonzero;fill:#1fa7e1;fill-opacity:1;" d="M 165.328125 126.71875 C 165.53125 127.511719 165.652344 128.3125 165.695312 129.128906 C 165.738281 129.941406 165.699219 130.753906 165.582031 131.5625 C 165.46875 132.371094 165.273438 133.15625 165 133.925781 C 164.726562 134.695312 164.382812 135.429688 163.964844 136.132812 C 163.550781 136.832031 163.070312 137.488281 162.523438 138.09375 C 161.976562 138.699219 161.378906 139.246094 160.722656 139.738281 C 160.070312 140.226562 159.375 140.644531 158.640625 140.996094 C 157.902344 141.347656 157.140625 141.625 156.347656 141.824219 C 155.558594 142.027344 154.753906 142.148438 153.941406 142.191406 C 153.125 142.234375 152.3125 142.195312 151.507812 142.078125 C 150.699219 141.964844 149.910156 141.769531 149.140625 141.496094 C 148.371094 141.222656 147.636719 140.878906 146.9375 140.460938 C 146.234375 140.046875 145.582031 139.5625 144.972656 139.019531 C 144.367188 138.472656 143.820312 137.875 143.332031 137.21875 C 142.84375 136.566406 142.425781 135.871094 142.074219 135.136719 C 141.722656 134.398438 141.445312 133.636719 141.242188 132.84375 C 141.042969 132.054688 140.921875 131.25 140.878906 130.4375 C 140.835938 129.621094 140.871094 128.808594 140.988281 128.003906 C 141.105469 127.195312 141.300781 126.40625 141.570312 125.636719 C 141.84375 124.867188 142.1875 124.132812 142.605469 123.433594 C 143.023438 122.730469 143.503906 122.078125 144.050781 121.46875 C 144.59375 120.863281 145.195312 120.316406 145.847656 119.828125 C 146.503906 119.339844 147.199219 118.921875 147.933594 118.570312 C 148.671875 118.21875 149.433594 117.941406 150.222656 117.738281 C 151.015625 117.539062 151.816406 117.417969 152.632812 117.375 C 153.445312 117.332031 154.257812 117.367188 155.066406 117.484375 C 155.875 117.601562 156.660156 117.796875 157.429688 118.066406 C 158.199219 118.339844 158.933594 118.683594 159.636719 119.101562 C 160.335938 119.519531 160.992188 120 161.597656 120.546875 C 162.203125 121.089844 162.75 121.691406 163.242188 122.34375 C 163.730469 123 164.148438 123.695312 164.5 124.429688 C 164.851562 125.167969 165.128906 125.929688 165.328125 126.71875 Z M 165.328125 126.71875 "/></g></g></g><g clip-rule="nonzero" clip-path="url(#abd05ab0aa)"><g clip-rule="nonzero" clip-path="url(#29b1d3068a)"><g clip-rule="nonzero" clip-path="url(#36f3c72bf6)"><path style=" stroke:none;fill-rule:nonzero;fill:#fcfdf2;fill-opacity:1;" d="M 156.476562 142.328125 C 155.652344 142.535156 154.816406 142.664062 153.96875 142.707031 C 153.117188 142.753906 152.273438 142.714844 151.433594 142.59375 C 150.589844 142.46875 149.769531 142.269531 148.96875 141.984375 C 148.167969 141.699219 147.402344 141.34375 146.671875 140.90625 C 145.941406 140.472656 145.261719 139.972656 144.628906 139.402344 C 143.996094 138.835938 143.425781 138.210938 142.917969 137.53125 C 142.410156 136.847656 141.972656 136.125 141.605469 135.359375 C 141.238281 134.589844 140.953125 133.796875 140.742188 132.972656 C 140.53125 132.148438 140.40625 131.3125 140.359375 130.464844 C 140.316406 129.613281 140.355469 128.769531 140.476562 127.929688 C 140.597656 127.085938 140.800781 126.265625 141.085938 125.464844 C 141.367188 124.664062 141.726562 123.898438 142.160156 123.167969 C 142.59375 122.4375 143.097656 121.757812 143.664062 121.125 C 144.234375 120.492188 144.859375 119.921875 145.539062 119.414062 C 146.21875 118.90625 146.945312 118.46875 147.710938 118.101562 C 148.476562 117.734375 149.273438 117.449219 150.097656 117.238281 C 150.921875 117.027344 151.757812 116.902344 152.605469 116.855469 C 153.453125 116.8125 154.300781 116.851562 155.140625 116.972656 C 155.980469 117.09375 156.800781 117.296875 157.601562 117.582031 C 158.40625 117.863281 159.171875 118.222656 159.902344 118.65625 C 160.632812 119.089844 161.3125 119.59375 161.945312 120.160156 C 162.574219 120.730469 163.144531 121.355469 163.65625 122.035156 C 164.164062 122.714844 164.601562 123.441406 164.96875 124.207031 C 165.332031 124.972656 165.621094 125.769531 165.832031 126.59375 C 166.039062 127.417969 166.164062 128.253906 166.207031 129.101562 C 166.25 129.949219 166.210938 130.792969 166.089844 131.632812 C 165.96875 132.476562 165.765625 133.296875 165.480469 134.097656 C 165.199219 134.898438 164.839844 135.664062 164.40625 136.394531 C 163.96875 137.121094 163.46875 137.804688 162.902344 138.433594 C 162.332031 139.066406 161.710938 139.636719 161.027344 140.148438 C 160.347656 140.65625 159.625 141.09375 158.859375 141.460938 C 158.09375 141.828125 157.296875 142.117188 156.476562 142.328125 Z M 150.351562 118.242188 C 149.59375 118.433594 148.863281 118.699219 148.15625 119.035156 C 147.453125 119.371094 146.785156 119.773438 146.160156 120.242188 C 145.53125 120.710938 144.957031 121.234375 144.433594 121.816406 C 143.910156 122.398438 143.449219 123.023438 143.050781 123.695312 C 142.652344 124.367188 142.320312 125.074219 142.058594 125.808594 C 141.800781 126.546875 141.613281 127.304688 141.5 128.078125 C 141.390625 128.851562 141.355469 129.628906 141.394531 130.410156 C 141.4375 131.191406 141.554688 131.957031 141.746094 132.714844 C 141.9375 133.472656 142.203125 134.207031 142.539062 134.910156 C 142.875 135.617188 143.277344 136.285156 143.746094 136.910156 C 144.214844 137.535156 144.738281 138.109375 145.320312 138.632812 C 145.902344 139.15625 146.527344 139.617188 147.199219 140.019531 C 147.871094 140.417969 148.578125 140.746094 149.3125 141.007812 C 150.050781 141.269531 150.808594 141.457031 151.582031 141.566406 C 152.355469 141.679688 153.132812 141.714844 153.914062 141.671875 C 154.695312 141.632812 155.460938 141.515625 156.21875 141.324219 C 156.976562 141.128906 157.710938 140.867188 158.414062 140.527344 C 159.121094 140.191406 159.789062 139.789062 160.414062 139.320312 C 161.039062 138.855469 161.613281 138.328125 162.136719 137.746094 C 162.660156 137.167969 163.121094 136.539062 163.523438 135.867188 C 163.921875 135.195312 164.25 134.492188 164.511719 133.753906 C 164.773438 133.015625 164.960938 132.261719 165.070312 131.488281 C 165.183594 130.714844 165.21875 129.9375 165.175781 129.15625 C 165.136719 128.375 165.019531 127.605469 164.828125 126.847656 C 164.632812 126.089844 164.367188 125.359375 164.03125 124.652344 C 163.695312 123.949219 163.292969 123.28125 162.824219 122.65625 C 162.355469 122.03125 161.832031 121.457031 161.25 120.933594 C 160.667969 120.410156 160.042969 119.949219 159.371094 119.550781 C 158.699219 119.152344 157.992188 118.820312 157.257812 118.558594 C 156.519531 118.300781 155.765625 118.113281 154.992188 118 C 154.21875 117.886719 153.441406 117.851562 152.660156 117.894531 C 151.878906 117.933594 151.109375 118.050781 150.351562 118.242188 Z M 162.085938 129.808594 C 162.085938 129.667969 162.039062 129.546875 161.9375 129.445312 C 161.835938 129.347656 161.714844 129.296875 161.570312 129.300781 C 161.429688 129.300781 161.304688 129.347656 161.203125 129.449219 C 161.101562 129.550781 161.050781 129.671875 161.050781 129.816406 C 161.046875 130.675781 160.90625 131.511719 160.621094 132.324219 C 160.339844 133.136719 159.933594 133.882812 159.40625 134.5625 C 158.875 135.238281 158.25 135.8125 157.53125 136.285156 C 156.808594 136.753906 156.03125 137.09375 155.199219 137.308594 C 154.367188 137.519531 153.519531 137.589844 152.664062 137.519531 C 151.804688 137.453125 150.980469 137.246094 150.191406 136.902344 C 149.402344 136.5625 148.691406 136.101562 148.054688 135.519531 C 147.417969 134.941406 146.894531 134.273438 146.480469 133.519531 C 146.410156 133.394531 146.308594 133.3125 146.171875 133.273438 C 146.035156 133.230469 145.902344 133.246094 145.777344 133.316406 C 145.652344 133.382812 145.566406 133.484375 145.527344 133.617188 C 145.484375 133.753906 145.5 133.886719 145.566406 134.011719 C 145.800781 134.433594 146.066406 134.835938 146.367188 135.21875 C 146.667969 135.597656 146.996094 135.953125 147.351562 136.277344 C 147.710938 136.605469 148.09375 136.902344 148.5 137.164062 C 148.90625 137.425781 149.332031 137.65625 149.777344 137.847656 C 150.21875 138.042969 150.675781 138.199219 151.148438 138.316406 C 151.617188 138.433594 152.09375 138.511719 152.578125 138.550781 C 153.058594 138.589844 153.542969 138.589844 154.023438 138.546875 C 154.507812 138.507812 154.984375 138.425781 155.453125 138.308594 C 155.921875 138.1875 156.378906 138.03125 156.824219 137.835938 C 157.265625 137.640625 157.691406 137.410156 158.097656 137.144531 C 158.503906 136.882812 158.882812 136.585938 159.242188 136.257812 C 159.597656 135.929688 159.925781 135.574219 160.222656 135.191406 C 160.519531 134.8125 160.785156 134.40625 161.015625 133.980469 C 161.25 133.554688 161.445312 133.113281 161.601562 132.65625 C 161.761719 132.199219 161.878906 131.730469 161.960938 131.253906 C 162.042969 130.773438 162.085938 130.292969 162.085938 129.808594 Z M 155.898438 123.242188 C 154.894531 123.496094 154.789062 125.191406 155.15625 126.636719 C 155.523438 128.082031 156.394531 129.527344 157.429688 129.261719 C 158.460938 129 158.535156 127.316406 158.167969 125.871094 C 157.800781 124.425781 156.902344 122.988281 155.898438 123.242188 Z M 147.867188 125.285156 C 146.863281 125.539062 146.761719 127.230469 147.128906 128.675781 C 147.496094 130.121094 148.367188 131.566406 149.398438 131.304688 C 150.433594 131.042969 150.507812 129.355469 150.140625 127.910156 C 149.773438 126.464844 148.871094 125.027344 147.867188 125.285156 Z M 147.867188 125.285156 "/></g></g></g><g clip-rule="nonzero" clip-path="url(#34e24863c9)"><path style=" stroke:none;fill-rule:nonzero;fill:#1fa7e1;fill-opacity:1;" d="M 290.550781 238.640625 C 290.550781 236.242188 287.886719 234.683594 284.601562 234.683594 L 284.589844 234.683594 C 284.410156 234.683594 284.285156 234.601562 284.21875 234.4375 C 284.148438 234.269531 284.175781 234.121094 284.304688 233.996094 L 284.355469 233.945312 C 286.679688 231.621094 287.460938 228.636719 285.765625 226.941406 C 284.070312 225.246094 281.085938 226.027344 278.761719 228.351562 L 278.753906 228.359375 C 278.625 228.488281 278.480469 228.519531 278.3125 228.449219 C 278.144531 228.378906 278.0625 228.253906 278.0625 228.074219 C 278.0625 228.050781 278.0625 228.027344 278.0625 228.003906 C 278.0625 224.71875 276.507812 222.054688 274.109375 222.054688 C 271.710938 222.054688 270.152344 224.71875 270.152344 228.003906 L 270.152344 228.015625 C 270.152344 228.195312 270.070312 228.320312 269.902344 228.390625 C 269.738281 228.457031 269.589844 228.429688 269.464844 228.300781 L 269.414062 228.25 C 267.089844 225.925781 264.105469 225.144531 262.410156 226.839844 C 260.714844 228.535156 261.496094 231.519531 263.820312 233.84375 L 263.828125 233.851562 C 263.957031 233.976562 263.984375 234.125 263.914062 234.292969 C 263.847656 234.457031 263.722656 234.542969 263.542969 234.539062 L 263.46875 234.539062 C 260.183594 234.539062 257.523438 236.097656 257.523438 238.496094 C 257.523438 240.894531 260.183594 242.453125 263.46875 242.453125 L 263.480469 242.453125 C 263.664062 242.453125 263.785156 242.535156 263.855469 242.703125 C 263.925781 242.867188 263.894531 243.015625 263.765625 243.140625 L 263.714844 243.191406 C 261.394531 245.515625 260.609375 248.5 262.308594 250.195312 C 264.003906 251.890625 266.988281 251.109375 269.308594 248.785156 L 269.320312 248.777344 C 269.445312 248.648438 269.59375 248.621094 269.757812 248.691406 C 269.925781 248.757812 270.007812 248.882812 270.007812 249.0625 L 270.007812 249.136719 C 270.007812 252.421875 271.5625 255.082031 273.964844 255.082031 C 276.363281 255.082031 277.917969 252.421875 277.917969 249.136719 L 277.917969 249.121094 C 277.917969 248.941406 278 248.816406 278.167969 248.75 C 278.335938 248.679688 278.480469 248.710938 278.609375 248.835938 L 278.660156 248.886719 C 280.980469 251.210938 283.964844 251.992188 285.660156 250.296875 C 287.359375 248.601562 286.574219 245.617188 284.253906 243.292969 L 284.246094 243.285156 C 284.117188 243.160156 284.085938 243.011719 284.15625 242.84375 C 284.226562 242.679688 284.351562 242.597656 284.53125 242.597656 L 284.601562 242.597656 C 287.886719 242.597656 290.550781 241.039062 290.550781 238.640625 Z M 290.550781 238.640625 "/></g><g clip-rule="nonzero" clip-path="url(#b0a78fe622)"><path style=" stroke:none;fill-rule:nonzero;fill:#1fa7e1;fill-opacity:1;" d="M 273.964844 255.378906 C 272.722656 255.378906 271.613281 254.710938 270.839844 253.5 C 270.113281 252.367188 269.714844 250.816406 269.714844 249.136719 C 269.714844 249.113281 269.714844 249.085938 269.714844 249.0625 C 269.714844 249.015625 269.695312 248.980469 269.648438 248.964844 C 269.601562 248.941406 269.5625 248.949219 269.527344 248.988281 L 269.519531 248.996094 C 268.328125 250.1875 266.953125 251 265.636719 251.289062 C 264.234375 251.597656 262.976562 251.285156 262.097656 250.40625 C 261.222656 249.527344 260.90625 248.273438 261.214844 246.867188 C 261.503906 245.554688 262.316406 244.175781 263.507812 242.984375 L 263.558594 242.933594 C 263.597656 242.902344 263.605469 242.863281 263.585938 242.816406 C 263.566406 242.769531 263.53125 242.746094 263.480469 242.75 L 263.46875 242.75 C 261.789062 242.75 260.238281 242.351562 259.105469 241.625 C 257.894531 240.847656 257.226562 239.738281 257.226562 238.496094 C 257.226562 237.257812 257.894531 236.144531 259.105469 235.371094 C 260.238281 234.644531 261.789062 234.246094 263.46875 234.246094 L 263.542969 234.246094 C 263.59375 234.25 263.625 234.226562 263.644531 234.179688 C 263.664062 234.136719 263.65625 234.09375 263.617188 234.0625 L 263.609375 234.050781 C 262.417969 232.863281 261.605469 231.484375 261.316406 230.167969 C 261.007812 228.765625 261.324219 227.507812 262.199219 226.632812 C 263.078125 225.753906 264.335938 225.441406 265.738281 225.75 C 267.054688 226.035156 268.429688 226.851562 269.621094 228.039062 L 269.671875 228.09375 C 269.707031 228.128906 269.746094 228.136719 269.789062 228.117188 C 269.835938 228.097656 269.859375 228.066406 269.855469 228.015625 L 269.855469 228 C 269.855469 226.320312 270.257812 224.769531 270.980469 223.640625 C 271.757812 222.425781 272.867188 221.757812 274.109375 221.757812 C 275.347656 221.757812 276.457031 222.425781 277.234375 223.636719 C 277.960938 224.769531 278.359375 226.320312 278.359375 228.003906 C 278.359375 228.027344 278.359375 228.050781 278.359375 228.074219 C 278.355469 228.125 278.378906 228.160156 278.425781 228.175781 C 278.46875 228.195312 278.511719 228.1875 278.542969 228.152344 L 278.554688 228.140625 C 279.742188 226.953125 281.121094 226.136719 282.433594 225.851562 C 283.839844 225.542969 285.097656 225.855469 285.972656 226.734375 C 286.851562 227.609375 287.164062 228.867188 286.855469 230.269531 C 286.566406 231.585938 285.753906 232.964844 284.566406 234.152344 L 284.511719 234.203125 C 284.476562 234.238281 284.46875 234.277344 284.488281 234.320312 C 284.503906 234.371094 284.539062 234.390625 284.589844 234.390625 L 284.601562 234.390625 C 286.285156 234.390625 287.835938 234.789062 288.96875 235.515625 C 290.179688 236.289062 290.847656 237.398438 290.847656 238.640625 C 290.847656 239.882812 290.179688 240.992188 288.96875 241.765625 C 287.835938 242.492188 286.285156 242.890625 284.601562 242.890625 L 284.53125 242.890625 C 284.480469 242.886719 284.445312 242.910156 284.429688 242.957031 C 284.410156 243.003906 284.417969 243.042969 284.453125 243.078125 L 284.464844 243.085938 C 285.652344 244.273438 286.46875 245.652344 286.753906 246.96875 C 287.0625 248.371094 286.75 249.628906 285.871094 250.507812 C 284.996094 251.382812 283.738281 251.695312 282.335938 251.386719 C 281.019531 251.101562 279.640625 250.285156 278.453125 249.097656 L 278.398438 249.042969 C 278.367188 249.007812 278.328125 249 278.285156 249.019531 C 278.234375 249.039062 278.214844 249.070312 278.214844 249.121094 L 278.214844 249.136719 C 278.214844 250.816406 277.816406 252.367188 277.089844 253.5 C 276.316406 254.710938 275.203125 255.378906 273.964844 255.378906 Z M 269.605469 248.363281 C 269.800781 248.363281 269.964844 248.429688 270.101562 248.570312 C 270.238281 248.707031 270.304688 248.871094 270.304688 249.066406 C 270.304688 249.089844 270.304688 249.113281 270.304688 249.136719 C 270.304688 252.410156 271.84375 254.789062 273.964844 254.789062 C 276.085938 254.789062 277.625 252.410156 277.625 249.136719 L 277.625 249.125 C 277.621094 248.808594 277.765625 248.589844 278.054688 248.472656 C 278.347656 248.351562 278.601562 248.40625 278.820312 248.632812 L 278.871094 248.679688 C 279.980469 249.789062 281.257812 250.546875 282.464844 250.8125 C 283.3125 251 284.523438 251.023438 285.457031 250.089844 C 286.957031 248.589844 286.367188 245.820312 284.050781 243.503906 L 284.042969 243.496094 C 283.816406 243.273438 283.765625 243.019531 283.886719 242.730469 C 284.007812 242.441406 284.222656 242.296875 284.539062 242.300781 L 284.605469 242.300781 C 287.882812 242.300781 290.257812 240.761719 290.257812 238.640625 C 290.257812 236.519531 287.878906 234.980469 284.601562 234.980469 L 284.589844 234.980469 C 284.277344 234.980469 284.058594 234.839844 283.941406 234.546875 C 283.820312 234.257812 283.875 234.003906 284.097656 233.785156 L 284.148438 233.738281 C 285.257812 232.625 286.015625 231.351562 286.28125 230.144531 C 286.464844 229.296875 286.492188 228.085938 285.554688 227.152344 C 284.621094 226.214844 283.410156 226.242188 282.5625 226.425781 C 281.355469 226.691406 280.082031 227.449219 278.96875 228.558594 L 278.960938 228.566406 C 278.742188 228.792969 278.488281 228.84375 278.199219 228.722656 C 277.90625 228.601562 277.765625 228.386719 277.769531 228.070312 C 277.769531 228.046875 277.769531 228.023438 277.769531 228.003906 C 277.769531 224.726562 276.230469 222.347656 274.109375 222.347656 C 271.988281 222.347656 270.449219 224.726562 270.449219 228.003906 L 270.449219 228.015625 C 270.449219 228.328125 270.304688 228.542969 270.015625 228.664062 C 269.726562 228.78125 269.472656 228.730469 269.253906 228.503906 L 269.203125 228.457031 C 266.886719 226.140625 264.121094 225.550781 262.617188 227.050781 C 261.683594 227.984375 261.707031 229.195312 261.894531 230.042969 C 262.160156 231.25 262.917969 232.523438 264.027344 233.636719 L 264.035156 233.644531 C 264.257812 233.867188 264.3125 234.121094 264.191406 234.410156 C 264.070312 234.699219 263.851562 234.84375 263.539062 234.839844 L 263.46875 234.839844 C 260.195312 234.839844 257.816406 236.378906 257.816406 238.5 C 257.816406 240.621094 260.195312 242.160156 263.46875 242.160156 L 263.484375 242.160156 C 263.796875 242.160156 264.011719 242.304688 264.128906 242.59375 C 264.25 242.882812 264.195312 243.136719 263.972656 243.355469 L 263.921875 243.402344 C 261.609375 245.71875 261.015625 248.488281 262.515625 249.988281 C 263.453125 250.921875 264.660156 250.898438 265.511719 250.710938 C 266.714844 250.445312 267.992188 249.6875 269.105469 248.578125 L 269.113281 248.570312 C 269.25 248.433594 269.414062 248.363281 269.605469 248.363281 Z M 269.605469 248.363281 "/></g><path style=" stroke:none;fill-rule:nonzero;fill:#fdfce9;fill-opacity:1;" d="M 284.128906 238.570312 C 284.128906 239.230469 284.0625 239.886719 283.933594 240.539062 C 283.804688 241.1875 283.613281 241.816406 283.359375 242.429688 C 283.105469 243.042969 282.792969 243.625 282.425781 244.175781 C 282.058594 244.726562 281.640625 245.234375 281.171875 245.703125 C 280.703125 246.171875 280.195312 246.589844 279.640625 246.960938 C 279.089844 247.328125 278.511719 247.636719 277.898438 247.890625 C 277.285156 248.144531 276.65625 248.335938 276.003906 248.464844 C 275.355469 248.59375 274.699219 248.660156 274.035156 248.660156 C 273.375 248.660156 272.71875 248.59375 272.066406 248.464844 C 271.417969 248.335938 270.785156 248.144531 270.175781 247.890625 C 269.5625 247.636719 268.980469 247.328125 268.429688 246.960938 C 267.878906 246.589844 267.371094 246.171875 266.902344 245.703125 C 266.433594 245.234375 266.015625 244.726562 265.644531 244.175781 C 265.277344 243.625 264.964844 243.042969 264.714844 242.429688 C 264.460938 241.816406 264.269531 241.1875 264.140625 240.539062 C 264.007812 239.886719 263.945312 239.230469 263.945312 238.570312 C 263.945312 237.90625 264.007812 237.25 264.140625 236.601562 C 264.269531 235.949219 264.460938 235.320312 264.714844 234.707031 C 264.964844 234.09375 265.277344 233.511719 265.644531 232.960938 C 266.015625 232.410156 266.433594 231.902344 266.902344 231.433594 C 267.371094 230.964844 267.878906 230.546875 268.429688 230.179688 C 268.980469 229.808594 269.5625 229.5 270.175781 229.246094 C 270.785156 228.992188 271.417969 228.800781 272.066406 228.671875 C 272.71875 228.542969 273.375 228.476562 274.035156 228.476562 C 274.699219 228.476562 275.355469 228.542969 276.003906 228.671875 C 276.65625 228.800781 277.285156 228.992188 277.898438 229.246094 C 278.511719 229.5 279.089844 229.808594 279.640625 230.179688 C 280.195312 230.546875 280.703125 230.964844 281.171875 231.433594 C 281.640625 231.902344 282.058594 232.410156 282.425781 232.960938 C 282.792969 233.511719 283.105469 234.09375 283.359375 234.707031 C 283.613281 235.320312 283.804688 235.949219 283.933594 236.601562 C 284.0625 237.25 284.128906 237.90625 284.128906 238.570312 Z M 284.128906 238.570312 "/><path style=" stroke:none;fill-rule:nonzero;fill:#1fa7e1;fill-opacity:1;" d="M 274.035156 247.914062 C 273.679688 247.914062 273.324219 247.894531 272.96875 247.851562 C 272.613281 247.8125 272.261719 247.75 271.914062 247.667969 C 271.566406 247.589844 271.222656 247.488281 270.886719 247.367188 C 270.550781 247.246094 270.222656 247.109375 269.902344 246.949219 C 269.582031 246.792969 269.273438 246.617188 268.972656 246.421875 C 268.671875 246.230469 268.382812 246.019531 268.109375 245.792969 C 267.832031 245.566406 267.570312 245.324219 267.320312 245.066406 C 267.074219 244.8125 266.839844 244.539062 266.621094 244.257812 C 266.40625 243.972656 266.203125 243.679688 266.019531 243.371094 C 265.835938 243.066406 265.671875 242.75 265.523438 242.425781 C 265.378906 242.101562 265.25 241.765625 265.140625 241.425781 C 265.03125 241.085938 264.941406 240.742188 264.871094 240.390625 C 264.800781 240.042969 264.753906 239.6875 264.722656 239.332031 C 264.695312 238.976562 264.683594 238.621094 264.695312 238.261719 C 264.707031 237.90625 264.742188 237.550781 264.792969 237.199219 C 264.84375 236.84375 264.917969 236.496094 265.011719 236.148438 C 265.101562 235.804688 265.214844 235.46875 265.347656 235.132812 C 265.476562 234.800781 265.628906 234.480469 265.796875 234.164062 C 265.964844 233.847656 266.148438 233.542969 266.351562 233.25 C 266.554688 232.957031 266.777344 232.675781 267.011719 232.40625 C 267.246094 232.140625 267.496094 231.886719 267.761719 231.644531 C 268.027344 231.40625 268.304688 231.179688 268.59375 230.972656 C 268.882812 230.765625 269.183594 230.574219 269.496094 230.402344 C 269.808594 230.226562 270.128906 230.074219 270.460938 229.9375 C 270.789062 229.800781 271.128906 229.683594 271.472656 229.582031 C 271.8125 229.484375 272.160156 229.40625 272.515625 229.347656 C 272.867188 229.292969 273.222656 229.253906 273.578125 229.234375 C 273.933594 229.21875 274.292969 229.222656 274.648438 229.246094 C 275.003906 229.269531 275.359375 229.3125 275.710938 229.375 C 276.0625 229.441406 276.40625 229.523438 276.75 229.628906 C 277.089844 229.730469 277.425781 229.855469 277.753906 229.996094 C 278.082031 230.136719 278.398438 230.296875 278.707031 230.476562 C 279.019531 230.65625 279.316406 230.851562 279.601562 231.0625 C 279.890625 231.277344 280.164062 231.503906 280.425781 231.75 C 280.683594 231.992188 280.929688 232.25 281.160156 232.523438 C 281.394531 232.796875 281.609375 233.082031 281.804688 233.378906 C 282.003906 233.675781 282.1875 233.980469 282.347656 234.300781 C 282.511719 234.617188 282.65625 234.941406 282.78125 235.277344 C 282.90625 235.613281 283.015625 235.953125 283.101562 236.296875 C 283.1875 236.644531 283.253906 236.996094 283.300781 237.347656 C 283.347656 237.703125 283.375 238.058594 283.378906 238.417969 C 283.386719 238.773438 283.371094 239.128906 283.335938 239.484375 C 283.300781 239.839844 283.246094 240.191406 283.171875 240.542969 C 283.09375 240.890625 283 241.234375 282.886719 241.574219 C 282.769531 241.910156 282.636719 242.242188 282.484375 242.566406 C 282.332031 242.886719 282.160156 243.199219 281.972656 243.503906 C 281.785156 243.808594 281.578125 244.097656 281.355469 244.378906 C 281.132812 244.65625 280.898438 244.925781 280.644531 245.175781 C 279.769531 246.054688 278.761719 246.734375 277.613281 247.207031 C 276.46875 247.683594 275.277344 247.917969 274.035156 247.914062 Z M 274.035156 229.894531 C 269.253906 229.894531 265.363281 233.785156 265.363281 238.570312 C 265.363281 243.351562 269.253906 247.242188 274.035156 247.242188 C 278.816406 247.242188 282.707031 243.351562 282.707031 238.570312 C 282.707031 233.785156 278.816406 229.894531 274.035156 229.894531 Z M 274.035156 229.894531 "/><path style=" stroke:none;fill-rule:nonzero;fill:#1fa7e1;fill-opacity:1;" d="M 276.660156 236.625 C 276.660156 236.757812 276.613281 236.875 276.519531 236.972656 C 276.429688 237.070312 276.316406 237.125 276.183594 237.132812 C 276.417969 237.808594 276.972656 238.277344 277.613281 238.277344 C 278.472656 238.277344 279.171875 237.4375 279.171875 236.398438 C 279.171875 235.359375 278.476562 234.519531 277.617188 234.519531 C 276.835938 234.519531 276.1875 235.210938 276.074219 236.117188 C 276.230469 236.09375 276.367188 236.132812 276.484375 236.238281 C 276.601562 236.339844 276.660156 236.46875 276.660156 236.625 Z M 276.660156 236.625 "/><path style=" stroke:none;fill-rule:nonzero;fill:#1fa7e1;fill-opacity:1;" d="M 269.292969 236.625 C 269.292969 236.894531 269.164062 237.058594 268.902344 237.121094 C 269.136719 237.800781 269.691406 238.277344 270.339844 238.277344 C 271.199219 238.277344 271.894531 237.4375 271.894531 236.398438 C 271.894531 235.359375 271.199219 234.519531 270.339844 234.519531 C 269.558594 234.519531 268.914062 235.210938 268.800781 236.113281 C 268.9375 236.117188 269.054688 236.167969 269.148438 236.269531 C 269.246094 236.367188 269.292969 236.488281 269.292969 236.625 Z M 269.292969 236.625 "/><path style=" stroke:none;fill-rule:nonzero;fill:#1fa7e1;fill-opacity:1;" d="M 281.445312 240.039062 L 279.066406 239.039062 C 278.980469 239.003906 278.894531 239.003906 278.808594 239.039062 C 278.722656 239.074219 278.664062 239.132812 278.625 239.21875 C 278.589844 239.304688 278.589844 239.390625 278.625 239.476562 C 278.660156 239.5625 278.722656 239.625 278.804688 239.660156 L 279.644531 240.011719 C 278.714844 242.027344 276.632812 244.085938 274.035156 244.085938 C 271.570312 244.085938 269.507812 242.15625 268.519531 240.199219 L 269.515625 239.777344 C 269.632812 239.730469 269.71875 239.644531 269.765625 239.527344 C 269.816406 239.40625 269.816406 239.289062 269.765625 239.171875 C 269.714844 239.050781 269.632812 238.96875 269.511719 238.917969 C 269.394531 238.871094 269.273438 238.871094 269.15625 238.921875 L 266.777344 239.917969 C 266.660156 239.96875 266.578125 240.050781 266.527344 240.171875 C 266.480469 240.289062 266.480469 240.410156 266.53125 240.527344 C 266.578125 240.644531 266.664062 240.730469 266.78125 240.777344 C 266.902344 240.828125 267.019531 240.824219 267.140625 240.777344 L 267.894531 240.457031 C 268.972656 242.617188 271.261719 244.757812 274.035156 244.757812 C 275.394531 244.757812 276.742188 244.25 277.9375 243.289062 C 278.945312 242.460938 279.722656 241.457031 280.265625 240.273438 L 281.183594 240.65625 C 281.269531 240.691406 281.351562 240.691406 281.4375 240.65625 C 281.523438 240.621094 281.585938 240.5625 281.621094 240.476562 C 281.65625 240.390625 281.660156 240.304688 281.625 240.21875 C 281.589844 240.132812 281.527344 240.074219 281.441406 240.035156 Z M 281.445312 240.039062 "/><g style="fill:#fcfdf2;fill-opacity:1;"><g transform="translate(174.268941, 244.760474)"><path style="stroke:none" d="M 6.484375 -2.546875 C 6.878906 -2.648438 7.285156 -2.648438 7.703125 -2.546875 C 8.128906 -2.441406 8.53125 -2.210938 8.90625 -1.859375 C 9.351562 -1.453125 9.65625 -0.972656 9.8125 -0.421875 C 9.96875 0.128906 9.957031 0.710938 9.78125 1.328125 C 9.613281 1.941406 9.273438 2.523438 8.765625 3.078125 C 8.253906 3.628906 7.695312 4.015625 7.09375 4.234375 C 6.5 4.460938 5.914062 4.523438 5.34375 4.421875 C 4.769531 4.328125 4.257812 4.078125 3.8125 3.671875 C 3.445312 3.328125 3.191406 2.941406 3.046875 2.515625 C 2.910156 2.097656 2.867188 1.695312 2.921875 1.3125 L -0.125 4.625 L -1.765625 3.109375 L 5.546875 -4.828125 L 7.1875 -3.3125 Z M 7.078125 1.53125 C 7.453125 1.125 7.628906 0.695312 7.609375 0.25 C 7.597656 -0.195312 7.429688 -0.570312 7.109375 -0.875 C 6.773438 -1.175781 6.382812 -1.3125 5.9375 -1.28125 C 5.488281 -1.257812 5.078125 -1.046875 4.703125 -0.640625 C 4.328125 -0.222656 4.144531 0.207031 4.15625 0.65625 C 4.164062 1.101562 4.335938 1.476562 4.671875 1.78125 C 4.984375 2.082031 5.367188 2.21875 5.828125 2.1875 C 6.285156 2.164062 6.703125 1.945312 7.078125 1.53125 Z M 7.078125 1.53125 "/></g></g><g style="fill:#fcfdf2;fill-opacity:1;"><g transform="translate(182.981102, 252.274549)"><path style="stroke:none" d="M 1.96875 -3.125 C 2.300781 -3.800781 2.71875 -4.328125 3.21875 -4.703125 C 3.726562 -5.078125 4.269531 -5.289062 4.84375 -5.34375 C 5.414062 -5.394531 5.972656 -5.285156 6.515625 -5.015625 C 6.972656 -4.796875 7.328125 -4.503906 7.578125 -4.140625 C 7.835938 -3.773438 7.988281 -3.394531 8.03125 -3 L 8.5 -3.9375 L 10.5 -2.953125 L 7.234375 3.59375 L 5.234375 2.609375 L 5.6875 1.6875 C 5.34375 1.882812 4.945312 1.988281 4.5 2 C 4.0625 2.019531 3.613281 1.914062 3.15625 1.6875 C 2.625 1.425781 2.207031 1.046875 1.90625 0.546875 C 1.613281 0.0546875 1.46875 -0.507812 1.46875 -1.15625 C 1.46875 -1.800781 1.632812 -2.457031 1.96875 -3.125 Z M 6.859375 -0.65625 C 7.109375 -1.15625 7.164062 -1.617188 7.03125 -2.046875 C 6.894531 -2.472656 6.628906 -2.785156 6.234375 -2.984375 C 5.835938 -3.179688 5.425781 -3.207031 5 -3.0625 C 4.570312 -2.925781 4.238281 -2.609375 4 -2.109375 C 3.75 -1.609375 3.691406 -1.140625 3.828125 -0.703125 C 3.960938 -0.273438 4.226562 0.0351562 4.625 0.234375 C 5.019531 0.429688 5.425781 0.457031 5.84375 0.3125 C 6.269531 0.164062 6.609375 -0.15625 6.859375 -0.65625 Z M 6.859375 -0.65625 "/></g></g><g style="fill:#fcfdf2;fill-opacity:1;"><g transform="translate(193.584489, 257.470556)"><path style="stroke:none" d="M 10.921875 -6.1875 C 11.816406 -6.082031 12.5 -5.722656 12.96875 -5.109375 C 13.445312 -4.503906 13.628906 -3.710938 13.515625 -2.734375 L 13.03125 1.5 L 10.796875 1.234375 L 11.25 -2.703125 C 11.300781 -3.171875 11.222656 -3.546875 11.015625 -3.828125 C 10.804688 -4.117188 10.484375 -4.289062 10.046875 -4.34375 C 9.609375 -4.394531 9.25 -4.300781 8.96875 -4.0625 C 8.695312 -3.832031 8.535156 -3.484375 8.484375 -3.015625 L 8.03125 0.921875 L 5.828125 0.671875 L 6.28125 -3.265625 C 6.332031 -3.734375 6.25 -4.113281 6.03125 -4.40625 C 5.8125 -4.695312 5.484375 -4.867188 5.046875 -4.921875 C 4.609375 -4.960938 4.25 -4.867188 3.96875 -4.640625 C 3.695312 -4.410156 3.535156 -4.0625 3.484375 -3.59375 L 3.03125 0.34375 L 0.8125 0.09375 L 1.640625 -7.171875 L 3.859375 -6.921875 L 3.765625 -6 C 4.023438 -6.269531 4.34375 -6.472656 4.71875 -6.609375 C 5.101562 -6.753906 5.53125 -6.800781 6 -6.75 C 6.539062 -6.6875 7.015625 -6.507812 7.421875 -6.21875 C 7.828125 -5.9375 8.125 -5.5625 8.3125 -5.09375 C 8.601562 -5.46875 8.976562 -5.757812 9.4375 -5.96875 C 9.90625 -6.175781 10.398438 -6.25 10.921875 -6.1875 Z M 10.921875 -6.1875 "/></g></g><g style="fill:#fcfdf2;fill-opacity:1;"><g transform="translate(209.96986, 258.280639)"><path style="stroke:none" d="M 0.5625 -8.28125 C 0.175781 -8.207031 -0.15625 -8.265625 -0.4375 -8.453125 C -0.71875 -8.640625 -0.890625 -8.898438 -0.953125 -9.234375 C -1.003906 -9.578125 -0.925781 -9.882812 -0.71875 -10.15625 C -0.507812 -10.425781 -0.210938 -10.597656 0.171875 -10.671875 C 0.554688 -10.734375 0.890625 -10.671875 1.171875 -10.484375 C 1.453125 -10.296875 1.617188 -10.03125 1.671875 -9.6875 C 1.734375 -9.351562 1.660156 -9.050781 1.453125 -8.78125 C 1.242188 -8.507812 0.945312 -8.34375 0.5625 -8.28125 Z M 1.78125 -7.703125 L 3 -0.5 L 0.796875 -0.140625 L -0.421875 -7.34375 Z M 1.78125 -7.703125 "/></g></g><g style="fill:#fcfdf2;fill-opacity:1;"><g transform="translate(215.900426, 257.117197)"><path style="stroke:none" d="M -0.109375 -10.140625 L 2.890625 -0.9375 L 0.765625 -0.25 L -2.234375 -9.453125 Z M -0.109375 -10.140625 "/></g></g><g style="fill:#fcfdf2;fill-opacity:1;"><g transform="translate(221.836541, 255.163294)"><path style="stroke:none" d="M 3.53125 -10.46875 L 4.9375 1.15625 L 2.84375 2.359375 L 2.4375 -1.6875 L -3.65625 -6.34375 L -1.484375 -7.578125 L 2.25 -4.453125 L 1.4375 -9.265625 Z M 3.53125 -10.46875 "/></g></g><g style="fill:#fcfdf2;fill-opacity:1;"><g transform="translate(231.09375, 249.472385)"><path style="stroke:none" d="M -2.375 -2.8125 C -2.90625 -3.34375 -3.269531 -3.910156 -3.46875 -4.515625 C -3.675781 -5.117188 -3.71875 -5.703125 -3.59375 -6.265625 C -3.476562 -6.828125 -3.207031 -7.320312 -2.78125 -7.75 C -2.425781 -8.113281 -2.035156 -8.363281 -1.609375 -8.5 C -1.179688 -8.632812 -0.773438 -8.65625 -0.390625 -8.5625 L -1.125 -9.28125 L 0.4375 -10.875 L 5.65625 -5.765625 L 4.09375 -4.171875 L 3.359375 -4.890625 C 3.441406 -4.503906 3.421875 -4.097656 3.296875 -3.671875 C 3.171875 -3.242188 2.929688 -2.847656 2.578125 -2.484375 C 2.160156 -2.054688 1.671875 -1.773438 1.109375 -1.640625 C 0.546875 -1.515625 -0.0351562 -1.546875 -0.640625 -1.734375 C -1.253906 -1.929688 -1.832031 -2.289062 -2.375 -2.8125 Z M 1.484375 -6.734375 C 1.085938 -7.117188 0.664062 -7.3125 0.21875 -7.3125 C -0.226562 -7.3125 -0.609375 -7.15625 -0.921875 -6.84375 C -1.234375 -6.53125 -1.382812 -6.148438 -1.375 -5.703125 C -1.375 -5.253906 -1.175781 -4.835938 -0.78125 -4.453125 C -0.375 -4.066406 0.0507812 -3.867188 0.5 -3.859375 C 0.957031 -3.859375 1.34375 -4.015625 1.65625 -4.328125 C 1.96875 -4.640625 2.113281 -5.019531 2.09375 -5.46875 C 2.082031 -5.914062 1.878906 -6.335938 1.484375 -6.734375 Z M 1.484375 -6.734375 "/></g></g><g style="fill:#fcfdf2;fill-opacity:1;"><g transform="translate(100.263697, 220.087082)"><path style="stroke:none" d="M 6.921875 -8.4375 C 3.753906 -10.613281 1.289062 -13.285156 -0.46875 -16.453125 C -2.226562 -19.628906 -3.351562 -23.078125 -3.84375 -26.796875 C -4.34375 -30.523438 -4.269531 -34.242188 -3.625 -37.953125 C -2.976562 -41.660156 -1.863281 -45.097656 -0.28125 -48.265625 C 0.3125 -49.515625 1.164062 -50.992188 2.28125 -52.703125 C 3.40625 -54.421875 4.695312 -56.109375 6.15625 -57.765625 C 7.625 -59.421875 9.207031 -60.847656 10.90625 -62.046875 C 12.613281 -63.253906 14.332031 -64.015625 16.0625 -64.328125 C 17.789062 -64.640625 19.507812 -64.242188 21.21875 -63.140625 C 23.125 -61.898438 24.441406 -60.410156 25.171875 -58.671875 C 25.910156 -56.941406 26.003906 -55.265625 25.453125 -53.640625 C 24.910156 -52.015625 23.703125 -50.6875 21.828125 -49.65625 C 19.378906 -48.40625 17.210938 -46.726562 15.328125 -44.625 C 13.453125 -42.53125 12.054688 -40.164062 11.140625 -37.53125 C 10.222656 -34.90625 9.957031 -32.140625 10.34375 -29.234375 C 10.71875 -27.046875 11.554688 -24.988281 12.859375 -23.0625 C 14.171875 -21.144531 15.929688 -19.863281 18.140625 -19.21875 C 18.960938 -19.03125 19.960938 -18.945312 21.140625 -18.96875 C 22.316406 -18.988281 23.453125 -19.195312 24.546875 -19.59375 C 25.640625 -19.988281 26.359375 -20.664062 26.703125 -21.625 C 27.046875 -22.59375 27.078125 -23.253906 26.796875 -23.609375 C 26.515625 -23.972656 26.066406 -24.203125 25.453125 -24.296875 C 24.835938 -24.390625 24.179688 -24.46875 23.484375 -24.53125 C 22.796875 -24.601562 22.195312 -24.828125 21.6875 -25.203125 C 20.59375 -25.992188 19.816406 -27.316406 19.359375 -29.171875 C 18.898438 -31.035156 18.835938 -32.625 19.171875 -33.9375 C 19.617188 -35.625 20.503906 -36.894531 21.828125 -37.75 C 23.148438 -38.613281 24.675781 -39.125 26.40625 -39.28125 C 28.132812 -39.445312 29.890625 -39.300781 31.671875 -38.84375 C 33.460938 -38.394531 35.078125 -37.695312 36.515625 -36.75 C 37.960938 -35.8125 39.019531 -34.695312 39.6875 -33.40625 C 41.445312 -29.875 42.289062 -26.550781 42.21875 -23.4375 C 42.15625 -20.320312 41.367188 -17.5 39.859375 -14.96875 C 38.359375 -12.4375 36.363281 -10.3125 33.875 -8.59375 C 31.382812 -6.882812 28.609375 -5.679688 25.546875 -4.984375 C 22.484375 -4.296875 19.347656 -4.21875 16.140625 -4.75 C 12.941406 -5.28125 9.867188 -6.507812 6.921875 -8.4375 Z M 6.921875 -8.4375 "/></g></g><g style="fill:#fcfdf2;fill-opacity:1;"><g transform="translate(141.720834, 212.161478)"><path style="stroke:none" d="M 27.9375 1.671875 C 26.976562 1.378906 26.265625 0.765625 25.796875 -0.171875 C 25.328125 -1.117188 25.023438 -2.195312 24.890625 -3.40625 C 24.753906 -4.613281 24.691406 -5.789062 24.703125 -6.9375 C 24.722656 -8.082031 24.753906 -9.003906 24.796875 -9.703125 C 23.460938 -8.078125 21.804688 -6.722656 19.828125 -5.640625 C 17.859375 -4.566406 15.828125 -3.929688 13.734375 -3.734375 C 11.648438 -3.546875 9.722656 -3.914062 7.953125 -4.84375 C 6.191406 -5.78125 4.800781 -7.429688 3.78125 -9.796875 C 2.820312 -12.191406 2.382812 -14.734375 2.46875 -17.421875 C 2.550781 -20.117188 3.054688 -22.773438 3.984375 -25.390625 C 4.910156 -28.003906 6.070312 -30.289062 7.46875 -32.25 C 8.820312 -34.039062 10.421875 -35.613281 12.265625 -36.96875 C 14.109375 -38.320312 16.070312 -39.238281 18.15625 -39.71875 C 20.25 -40.207031 22.238281 -40.082031 24.125 -39.34375 C 26.007812 -38.613281 27.671875 -37.085938 29.109375 -34.765625 C 29.953125 -33.421875 30.648438 -32.234375 31.203125 -31.203125 C 31.753906 -30.171875 32.15625 -29.085938 32.40625 -27.953125 C 32.664062 -26.816406 32.769531 -25.40625 32.71875 -23.71875 L 32.203125 -7.21875 C 32.160156 -6.570312 32.132812 -5.691406 32.125 -4.578125 C 32.125 -3.460938 32.015625 -2.367188 31.796875 -1.296875 C 31.585938 -0.234375 31.179688 0.601562 30.578125 1.21875 C 29.984375 1.832031 29.101562 1.984375 27.9375 1.671875 Z M 18.078125 -18.828125 C 18.773438 -18.785156 19.523438 -19.132812 20.328125 -19.875 C 21.140625 -20.613281 21.878906 -21.445312 22.546875 -22.375 C 23.222656 -23.300781 23.664062 -24.019531 23.875 -24.53125 C 24.539062 -25.78125 24.6875 -26.914062 24.3125 -27.9375 C 23.9375 -28.957031 23.03125 -29.222656 21.59375 -28.734375 C 20.644531 -28.429688 19.691406 -27.664062 18.734375 -26.4375 C 17.773438 -25.21875 17.085938 -24.148438 16.671875 -23.234375 C 16.328125 -22.316406 16.148438 -21.382812 16.140625 -20.4375 C 16.140625 -19.5 16.785156 -18.960938 18.078125 -18.828125 Z M 18.078125 -18.828125 "/></g></g><g style="fill:#fcfdf2;fill-opacity:1;"><g transform="translate(181.198359, 218.403895)"><path style="stroke:none" d="M 10.09375 0.296875 C 7.289062 0.265625 5.34375 -0.460938 4.25 -1.890625 C 3.164062 -3.316406 2.472656 -5.300781 2.171875 -7.84375 C 1.765625 -11.039062 1.625 -14.222656 1.75 -17.390625 C 1.875 -20.566406 2.035156 -23.707031 2.234375 -26.8125 C 2.421875 -29.664062 2.539062 -32.53125 2.59375 -35.40625 C 2.644531 -38.289062 2.898438 -41.125 3.359375 -43.90625 C 3.503906 -45.039062 3.785156 -46.316406 4.203125 -47.734375 C 4.617188 -49.148438 5.429688 -50.078125 6.640625 -50.515625 C 7.722656 -50.921875 8.722656 -50.800781 9.640625 -50.15625 C 10.566406 -49.507812 11.257812 -48.722656 11.71875 -47.796875 C 12.28125 -46.703125 12.539062 -45.519531 12.5 -44.25 C 12.46875 -42.988281 12.460938 -41.765625 12.484375 -40.578125 C 12.484375 -38.859375 12.484375 -37.132812 12.484375 -35.40625 C 12.492188 -33.6875 12.390625 -31.96875 12.171875 -30.25 C 13.453125 -31.613281 14.988281 -32.671875 16.78125 -33.421875 C 18.582031 -34.179688 20.410156 -34.109375 22.265625 -33.203125 C 24.179688 -32.273438 25.570312 -30.988281 26.4375 -29.34375 C 27.300781 -27.707031 27.769531 -25.890625 27.84375 -23.890625 C 27.925781 -21.898438 27.707031 -19.863281 27.1875 -17.78125 C 26.664062 -15.707031 25.988281 -13.738281 25.15625 -11.875 C 24.332031 -10.007812 23.441406 -8.445312 22.484375 -7.1875 C 21.085938 -5.238281 19.304688 -3.5 17.140625 -1.96875 C 14.972656 -0.4375 12.625 0.316406 10.09375 0.296875 Z M 10.234375 -10.453125 C 11.523438 -10.515625 12.695312 -11.015625 13.75 -11.953125 C 14.800781 -12.890625 15.707031 -13.992188 16.46875 -15.265625 C 17.238281 -16.535156 17.796875 -17.679688 18.140625 -18.703125 C 18.441406 -19.441406 18.628906 -20.238281 18.703125 -21.09375 C 18.773438 -21.945312 18.644531 -22.617188 18.3125 -23.109375 C 17.976562 -23.609375 17.296875 -23.6875 16.265625 -23.34375 C 15.015625 -22.894531 14.035156 -22.164062 13.328125 -21.15625 C 12.628906 -20.15625 12.097656 -19.015625 11.734375 -17.734375 C 11.378906 -16.460938 11.101562 -15.171875 10.90625 -13.859375 C 10.707031 -12.546875 10.484375 -11.410156 10.234375 -10.453125 Z M 10.234375 -10.453125 "/></g></g><g style="fill:#fcfdf2;fill-opacity:1;"><g transform="translate(213.635158, 219.88506)"><path style="stroke:none" d="M 6.0625 -1.5 C 3.882812 -1.738281 2.332031 -2.503906 1.40625 -3.796875 C 0.488281 -5.085938 -0.0351562 -6.660156 -0.171875 -8.515625 C -0.316406 -10.367188 -0.289062 -12.253906 -0.09375 -14.171875 C 0.101562 -16.097656 0.265625 -17.832031 0.390625 -19.375 C 0.703125 -23.457031 1.117188 -27.546875 1.640625 -31.640625 C 2.171875 -35.734375 2.753906 -39.828125 3.390625 -43.921875 C 3.898438 -47.378906 4.992188 -50.296875 6.671875 -52.671875 C 8.347656 -55.054688 11.039062 -56.609375 14.75 -57.328125 C 16.8125 -57.722656 18.585938 -57.507812 20.078125 -56.6875 C 21.578125 -55.875 22.875 -54.703125 23.96875 -53.171875 C 25.070312 -51.640625 26.070312 -49.988281 26.96875 -48.21875 C 27.863281 -46.457031 28.703125 -44.820312 29.484375 -43.3125 L 43.140625 -18.65625 C 44.066406 -17.019531 44.613281 -15.503906 44.78125 -14.109375 C 44.957031 -12.710938 44.382812 -11.253906 43.0625 -9.734375 C 41.71875 -8.253906 40.320312 -7.445312 38.875 -7.3125 C 37.425781 -7.1875 36.003906 -7.851562 34.609375 -9.3125 C 33.953125 -10.03125 33.351562 -10.96875 32.8125 -12.125 C 32.269531 -13.289062 31.695312 -14.425781 31.09375 -15.53125 C 30.5 -16.632812 29.785156 -17.421875 28.953125 -17.890625 C 28.828125 -17.972656 28.15625 -17.96875 26.9375 -17.875 C 25.726562 -17.789062 24.332031 -17.65625 22.75 -17.46875 C 21.175781 -17.28125 19.738281 -17.066406 18.4375 -16.828125 C 17.144531 -16.585938 16.363281 -16.3125 16.09375 -16 C 15.457031 -15.238281 15.109375 -14.140625 15.046875 -12.703125 C 14.984375 -11.273438 14.953125 -9.8125 14.953125 -8.3125 C 14.953125 -6.8125 14.671875 -5.582031 14.109375 -4.625 C 13.359375 -3.300781 12.203125 -2.398438 10.640625 -1.921875 C 9.085938 -1.453125 7.5625 -1.3125 6.0625 -1.5 Z M 17.890625 -27.921875 C 18.609375 -28.140625 19.3125 -28.382812 20 -28.65625 C 20.6875 -28.9375 21.375 -29.1875 22.0625 -29.40625 C 21.507812 -30.414062 20.972656 -31.421875 20.453125 -32.421875 C 19.929688 -33.421875 19.421875 -34.429688 18.921875 -35.453125 C 18.753906 -34.210938 18.582031 -32.960938 18.40625 -31.703125 C 18.226562 -30.453125 18.054688 -29.191406 17.890625 -27.921875 Z M 17.890625 -27.921875 "/></g></g><g style="fill:#fcfdf2;fill-opacity:1;"><g transform="translate(263.821734, 210.063677)"><path style="stroke:none" d="M -15.21875 -48.625 C -16.144531 -50.019531 -16.59375 -51.578125 -16.5625 -53.296875 C -16.53125 -55.015625 -16.117188 -56.675781 -15.328125 -58.28125 C -14.546875 -59.882812 -13.488281 -61.144531 -12.15625 -62.0625 C -11.601562 -62.425781 -10.832031 -62.734375 -9.84375 -62.984375 C -8.851562 -63.242188 -7.800781 -63.347656 -6.6875 -63.296875 C -5.582031 -63.253906 -4.648438 -62.992188 -3.890625 -62.515625 C -3.140625 -62.035156 -2.75 -61.257812 -2.71875 -60.1875 C -1.675781 -58.84375 -1.222656 -57.28125 -1.359375 -55.5 C -1.492188 -53.71875 -2.019531 -52.023438 -2.9375 -50.421875 C -3.863281 -48.828125 -5.03125 -47.554688 -6.4375 -46.609375 C -7.851562 -45.671875 -9.335938 -45.300781 -10.890625 -45.5 C -12.441406 -45.707031 -13.882812 -46.75 -15.21875 -48.625 Z M 11.015625 -4.984375 C 9.722656 -3.242188 8.164062 -2.457031 6.34375 -2.625 C 4.53125 -2.789062 2.921875 -3.570312 1.515625 -4.96875 C 0.210938 -6.332031 -0.914062 -8.03125 -1.875 -10.0625 C -2.84375 -12.09375 -3.679688 -14.269531 -4.390625 -16.59375 C -5.109375 -18.914062 -5.738281 -21.203125 -6.28125 -23.453125 C -6.832031 -25.703125 -7.316406 -27.691406 -7.734375 -29.421875 C -8.003906 -30.523438 -8.328125 -31.796875 -8.703125 -33.234375 C -9.085938 -34.671875 -9.335938 -36.132812 -9.453125 -37.625 C -9.578125 -39.125 -9.398438 -40.414062 -8.921875 -41.5 C -8.203125 -43.039062 -7.21875 -43.984375 -5.96875 -44.328125 C -4.71875 -44.679688 -3.398438 -44.625 -2.015625 -44.15625 C -0.640625 -43.695312 0.546875 -42.929688 1.546875 -41.859375 C 3.765625 -39.546875 5.539062 -36.722656 6.875 -33.390625 C 8.21875 -30.066406 9.25 -26.625 9.96875 -23.0625 C 10.6875 -19.5 11.257812 -16.203125 11.6875 -13.171875 C 11.875 -11.804688 12.023438 -10.414062 12.140625 -9 C 12.265625 -7.59375 11.890625 -6.253906 11.015625 -4.984375 Z M 11.015625 -4.984375 "/></g></g></g></svg>