<svg width="166" height="166" viewBox="0 0 166 166" fill="none" xmlns="http://www.w3.org/2000/svg">
<path d="M122.35 0H43.52C19.4846 0 0 19.4846 0 43.52V122.35C0 146.385 19.4846 165.87 43.52 165.87H122.35C146.385 165.87 165.87 146.385 165.87 122.35V43.52C165.87 19.4846 146.385 0 122.35 0Z" fill="#FF8584"/>
<path d="M107.35 119.14C108.71 119.64 110.07 118.49 109.87 117.07C108.17 105.16 96.7602 95.95 82.9302 95.95C69.1002 95.95 57.6902 105.15 55.9902 117.05C55.7902 118.48 57.1602 119.62 58.5102 119.12L71.5402 114.31C78.8002 111.63 86.7802 111.61 94.0502 114.27L107.34 119.13L107.35 119.14Z" fill="#333333"/>
<path d="M55.3703 82.94C58.4355 82.94 60.9203 78.7494 60.9203 73.58C60.9203 68.4106 58.4355 64.22 55.3703 64.22C52.3051 64.22 49.8203 68.4106 49.8203 73.58C49.8203 78.7494 52.3051 82.94 55.3703 82.94Z" fill="#333333"/>
<path d="M110.88 82.94C113.945 82.94 116.43 78.7494 116.43 73.58C116.43 68.4106 113.945 64.22 110.88 64.22C107.815 64.22 105.33 68.4106 105.33 73.58C105.33 78.7494 107.815 82.94 110.88 82.94Z" fill="#333333"/>
<path d="M61.6602 66.78C58.3202 64.23 50.4402 59.54 37.5802 59.52C36.9302 59.52 36.3002 59.21 35.9402 58.67C35.2702 57.67 34.6902 55.98 36.9402 54.67C36.9402 54.67 43.2302 50.95 50.6602 53.81C50.6602 53.81 58.8602 57.91 62.1602 63.17C62.3102 63.4 62.4102 63.66 62.4702 63.93L62.9402 65.94C63.1202 66.69 62.2702 67.24 61.6602 66.78Z" fill="#333333"/>
<path d="M104.2 66.78C107.54 64.23 115.42 59.54 128.28 59.52C128.93 59.52 129.56 59.21 129.92 58.67C130.59 57.67 131.17 55.98 128.92 54.67C128.92 54.67 122.63 50.95 115.2 53.81C115.2 53.81 107 57.91 103.7 63.17C103.55 63.4 103.45 63.66 103.39 63.93L102.92 65.94C102.74 66.69 103.59 67.24 104.2 66.78Z" fill="#333333"/>
</svg>
