<svg width="166" height="166" viewBox="0 0 166 166" fill="none" xmlns="http://www.w3.org/2000/svg">
<path d="M121.85 0H44.02C19.7084 0 0 19.7084 0 44.02V121.85C0 146.162 19.7084 165.87 44.02 165.87H121.85C146.162 165.87 165.87 146.162 165.87 121.85V44.02C165.87 19.7084 146.162 0 121.85 0Z" fill="#94BBF6"/>
<path d="M101.82 128.54C106.53 128.54 109.77 123.66 107.78 119.39C103.74 110.71 94.1403 104.6 82.9403 104.6C71.7403 104.6 62.1303 110.71 58.1003 119.39C56.1103 123.66 59.3503 128.54 64.0603 128.54H101.82Z" fill="#333333"/>
<path d="M29.7902 64.6101C30.1602 65.2701 30.9002 65.84 32.0702 66.14C41.7902 68.67 60.9202 65.4401 62.4802 53.1701C62.7402 51.1601 61.7002 46.26 58.8102 48.59C55.7702 51.04 53.6902 54.4501 50.5602 56.8501C47.4802 59.2001 43.8802 60.51 39.9902 60.37C37.4602 60.28 34.7102 59.7201 32.2302 60.4901C30.0002 61.1801 28.9802 63.1401 29.7902 64.6101Z" fill="#333333"/>
<path d="M136.09 64.6101C135.72 65.2701 134.98 65.84 133.81 66.14C124.09 68.67 104.96 65.4401 103.4 53.1701C103.14 51.1601 104.18 46.26 107.07 48.59C110.11 51.04 112.19 54.4501 115.32 56.8501C118.4 59.2001 122 60.51 125.89 60.37C128.42 60.28 131.17 59.7201 133.65 60.4901C135.88 61.1801 136.9 63.1401 136.09 64.6101Z" fill="#333333"/>
<path d="M61.6502 81.1701C62.7702 81.5801 63.8302 82.08 64.7802 82.78C69.6402 86.42 64.3601 90.7801 60.9601 92.9201C57.2701 95.2401 51.2702 99.3801 46.6702 98.4801C45.9502 98.3401 45.1902 98.03 44.8202 97.39C43.0802 94.36 47.9402 92.93 49.9002 92.08C51.3602 91.45 54.2201 90.03 54.0501 88.07C54.0001 87.49 53.6402 86.98 53.2302 86.57C50.3502 83.76 44.1602 84.58 43.0202 79.9C42.8702 79.27 42.9602 78.56 43.3902 78.07C43.8102 77.59 44.4602 77.4001 45.0802 77.3001C48.9302 76.6501 52.7101 77.97 56.2401 79.39C57.9601 80.08 59.8702 80.51 61.6602 81.16L61.6502 81.1701Z" fill="#333333"/>
<path d="M104.22 81.1701C103.1 81.5801 102.04 82.08 101.09 82.78C96.23 86.42 101.51 90.7801 104.91 92.9201C108.6 95.2401 114.6 99.3801 119.2 98.4801C119.92 98.3401 120.68 98.03 121.05 97.39C122.79 94.36 117.93 92.93 115.97 92.08C114.51 91.45 111.65 90.03 111.82 88.07C111.87 87.49 112.23 86.98 112.64 86.57C115.52 83.76 121.71 84.58 122.85 79.9C123 79.27 122.91 78.56 122.48 78.07C122.06 77.59 121.41 77.4001 120.79 77.3001C116.94 76.6501 113.16 77.97 109.63 79.39C107.91 80.08 106 80.51 104.21 81.16L104.22 81.1701Z" fill="#333333"/>
</svg>
