<svg width="166" height="166" viewBox="0 0 166 166" fill="none" xmlns="http://www.w3.org/2000/svg">
<path d="M122.35 0H43.52C19.4846 0 0 19.4846 0 43.52V122.35C0 146.385 19.4846 165.87 43.52 165.87H122.35C146.385 165.87 165.87 146.385 165.87 122.35V43.52C165.87 19.4846 146.385 0 122.35 0Z" fill="#FFE780"/>
<path d="M46.9498 77.82C50.9207 77.82 54.1398 72.3892 54.1398 65.69C54.1398 58.9908 50.9207 53.56 46.9498 53.56C42.9788 53.56 39.7598 58.9908 39.7598 65.69C39.7598 72.3892 42.9788 77.82 46.9498 77.82Z" fill="#333333"/>
<path d="M118.9 77.82C122.871 77.82 126.09 72.3892 126.09 65.69C126.09 58.9908 122.871 53.56 118.9 53.56C114.929 53.56 111.71 58.9908 111.71 65.69C111.71 72.3892 114.929 77.82 118.9 77.82Z" fill="#333333"/>
<path d="M107.63 93.2C114.14 93.2 118.37 100.05 115.47 105.88C110 116.88 97.6397 124.55 83.2697 124.55C68.8997 124.55 56.5397 116.88 51.0697 105.88C48.1697 100.05 52.3897 93.2 58.9097 93.2H107.64H107.63Z" fill="#333333"/>
</svg>
