<svg width="166" height="166" viewBox="0 0 166 166" fill="none" xmlns="http://www.w3.org/2000/svg">
<path d="M121.85 0H44.02C19.7084 0 0 19.7084 0 44.02V121.85C0 146.162 19.7084 165.87 44.02 165.87H121.85C146.162 165.87 165.87 146.162 165.87 121.85V44.02C165.87 19.7084 146.162 0 121.85 0Z" fill="#939598"/>
<path d="M50.3102 87.89C55.4575 87.89 59.6302 83.7173 59.6302 78.57C59.6302 73.4227 55.4575 69.25 50.3102 69.25C45.1629 69.25 40.9902 73.4227 40.9902 78.57C40.9902 83.7173 45.1629 87.89 50.3102 87.89Z" fill="#333333"/>
<path d="M115.55 87.89C120.697 87.89 124.87 83.7173 124.87 78.57C124.87 73.4227 120.697 69.25 115.55 69.25C110.403 69.25 106.23 73.4227 106.23 78.57C106.23 83.7173 110.403 87.89 115.55 87.89Z" fill="#333333"/>
<path d="M135.5 111.4H30.3601C29.1301 111.4 28.1401 110.41 28.1401 109.18C28.1401 107.95 29.1301 106.96 30.3601 106.96H135.51C136.74 106.96 137.73 107.95 137.73 109.18C137.73 110.41 136.74 111.4 135.51 111.4H135.5Z" fill="#333333"/>
</svg>
