<svg width="166" height="166" viewBox="0 0 166 166" fill="none" xmlns="http://www.w3.org/2000/svg">
<path d="M121.86 0H44.01C19.7039 0 0 19.704 0 44.01V121.86C0 146.166 19.7039 165.87 44.01 165.87H121.86C146.166 165.87 165.87 146.166 165.87 121.86V44.01C165.87 19.704 146.166 0 121.86 0Z" fill="#FCD94D"/>
<path d="M57.3601 77.93C57.7901 77.84 58.3201 77.79 58.5901 78.13C58.7301 78.3 58.7601 78.53 58.7701 78.74C58.8501 80.31 57.8401 81.75 56.5701 82.68C54.2901 84.34 51.3101 84.63 48.4901 84.73C45.3101 84.84 41.9401 84.73 39.2601 83.03C38.1601 82.33 37.1801 81.29 37.0101 80C36.8001 78.34 38.2101 77 39.8101 77.46C41.3101 77.89 42.5301 78.87 44.1001 79.23C48.5501 80.25 53.0101 78.84 57.3501 77.93H57.3601Z" fill="#333333"/>
<path d="M108.52 77.93C108.09 77.84 107.56 77.79 107.29 78.13C107.15 78.3 107.12 78.53 107.11 78.74C107.03 80.31 108.04 81.75 109.31 82.68C111.59 84.34 114.57 84.63 117.39 84.73C120.57 84.84 123.94 84.73 126.62 83.03C127.72 82.33 128.7 81.29 128.87 80C129.08 78.34 127.67 77 126.07 77.46C124.57 77.89 123.35 78.87 121.78 79.23C117.33 80.25 112.87 78.84 108.53 77.93H108.52Z" fill="#333333"/>
<path d="M84.1201 94.27C87.9201 94.32 91.6701 95.57 94.7601 98.22C99.5701 102.36 101.72 109.68 101.63 115.85C101.54 121.72 99.6801 127.8 95.0701 131.69C87.5401 138.03 76.9001 136.36 70.1501 129.6C57.8101 117.23 65.8801 94 84.1201 94.27Z" fill="#333333"/>
<path d="M120.44 52.79C121.91 51.12 123.68 49.49 125.64 48.41C126.4 47.99 127.31 47.72 128.18 47.91C129.06 48.1 129.16 48.95 129.28 49.71C129.57 51.52 129.77 53.34 130.03 55.16C130.15 56 130.29 56.83 130.44 57.66C130.68 58.98 130.86 61.63 132.94 60.93C133.38 60.78 133.75 60.49 134.09 60.17C134.72 59.58 135.29 58.83 136.12 58.51C137.76 57.87 138.78 59.55 138.04 60.93C137.71 61.55 137.21 62.07 136.72 62.56C135.76 63.51 134.81 64.46 133.84 65.41C133.01 66.23 132.25 67.21 131.16 67.7C130.21 68.13 129.24 67.68 128.76 66.79C128.41 66.13 128.3 65.35 128.2 64.61C128.08 63.67 127.95 62.72 127.82 61.78C127.54 59.67 127.25 57.56 126.97 55.45C126.88 54.81 126.87 53.92 126.43 53.42C125.99 52.92 125.26 52.78 124.65 53C124.06 53.21 123.6 53.69 123.26 54.22C122.44 55.5 122.1 57.21 120.72 58.06C119.92 58.55 118.85 58.41 118.33 57.59C117.61 56.46 118.57 55.2 119.23 54.31C119.62 53.79 120.02 53.29 120.45 52.8L120.44 52.79Z" fill="#333333"/>
<path d="M133.53 43.05C134.73 41.68 136.19 40.34 137.79 39.45C138.41 39.11 139.16 38.89 139.87 39.04C140.59 39.2 140.68 39.9 140.77 40.52C141 42.01 141.17 43.5 141.38 44.99C141.48 45.68 141.59 46.36 141.72 47.04C141.92 48.13 142.06 50.3 143.77 49.72C144.13 49.6 144.44 49.36 144.71 49.1C145.23 48.62 145.7 48 146.38 47.74C147.72 47.22 148.56 48.59 147.95 49.73C147.68 50.23 147.27 50.67 146.87 51.07C146.09 51.85 145.3 52.63 144.51 53.41C143.83 54.08 143.2 54.89 142.31 55.29C141.53 55.64 140.74 55.28 140.34 54.54C140.05 54 139.96 53.36 139.88 52.75C139.78 51.98 139.67 51.2 139.57 50.43C139.34 48.7 139.1 46.97 138.87 45.24C138.8 44.71 138.79 43.98 138.42 43.57C138.06 43.16 137.46 43.04 136.96 43.23C136.48 43.4 136.1 43.79 135.82 44.23C135.15 45.28 134.87 46.68 133.73 47.38C133.07 47.78 132.19 47.67 131.77 46.99C131.18 46.06 131.96 45.03 132.51 44.3C132.83 43.88 133.16 43.46 133.51 43.06L133.53 43.05Z" fill="#333333"/>
<path d="M145.89 33.64C146.91 32.48 148.13 31.35 149.49 30.6C150.02 30.31 150.65 30.12 151.25 30.25C151.86 30.38 151.93 30.97 152.01 31.5C152.21 32.75 152.35 34.02 152.53 35.27C152.61 35.85 152.71 36.43 152.82 37C152.99 37.92 153.11 39.75 154.55 39.27C154.85 39.17 155.11 38.97 155.35 38.75C155.79 38.34 156.18 37.82 156.76 37.6C157.89 37.16 158.6 38.32 158.09 39.28C157.86 39.71 157.52 40.07 157.18 40.41C156.52 41.07 155.86 41.73 155.19 42.38C154.61 42.95 154.09 43.63 153.33 43.97C152.67 44.27 152 43.96 151.67 43.34C151.43 42.88 151.35 42.34 151.28 41.83C151.19 41.18 151.1 40.52 151.02 39.87C150.82 38.41 150.62 36.95 150.43 35.48C150.37 35.04 150.36 34.42 150.05 34.07C149.75 33.73 149.24 33.63 148.82 33.78C148.41 33.93 148.09 34.26 147.86 34.62C147.29 35.51 147.06 36.69 146.1 37.28C145.55 37.62 144.8 37.52 144.44 36.95C143.94 36.16 144.6 35.29 145.06 34.68C145.33 34.32 145.61 33.97 145.91 33.64H145.89Z" fill="#333333"/>
</svg>
